<svg width="56" height="56" viewBox="0 0 56 56" fill="none" xmlns="http://www.w3.org/2000/svg">
<path d="M28 0C12.6 0 0 12.6 0 28C0 43.4 12.6 56 28 56C43.4 56 56 43.4 56 28C56 12.6 43.4 0 28 0ZM28 52.2666C14.6222 52.2666 3.73334 41.3778 3.73334 28C3.73334 14.6222 14.6222 3.73334 28 3.73334C41.3778 3.73334 52.2666 14.6222 52.2666 28C52.2666 41.3778 41.3778 52.2666 28 52.2666Z" fill="black"/>
<path d="M39.8223 16.1781C39.0445 15.4003 37.9556 15.4003 37.1779 16.1781L28 25.3558L18.8223 16.1781C18.0445 15.4003 16.9556 15.4003 16.1779 16.1781C15.4 16.9558 15.4 18.0447 16.1779 18.8224L25.3556 28.0003L16.1779 37.1781C15.4 37.9558 15.4 39.0447 16.1779 39.8224C16.4889 40.1336 16.9556 40.4447 17.4223 40.4447C17.8889 40.4447 18.3556 40.2892 18.6668 39.8224L27.8445 30.6447L37.0223 39.8224C37.3334 40.1336 37.8 40.4447 38.2668 40.4447C38.7334 40.4447 39.2 40.2892 39.5111 39.8224C40.2889 39.0447 40.2889 37.9558 39.5111 37.1781L30.6445 28.0003L39.8223 18.8224C40.6 18.0447 40.6 16.9558 39.8223 16.1781Z" fill="black"/>
</svg>
