<svg width="20" height="15" viewBox="0 0 20 15" fill="none" xmlns="http://www.w3.org/2000/svg">
    <g clip-path="url(#clip0_2261_18350)">
    <path fill-rule="evenodd" clip-rule="evenodd" d="M12.2344 2.18495C11.9219 1.88114 11.9219 1.38876 12.2344 1.08494C12.5468 0.781216 13.0533 0.781216 13.3657 1.08494L19.7657 7.30714C20.0781 7.61094 20.0781 8.10334 19.7657 8.40714L13.3657 14.6293C13.0533 14.9331 12.5468 14.9331 12.2344 14.6293C11.9219 14.3255 11.9219 13.8331 12.2344 13.5293L17.2687 8.63494L0.800001 8.63489C0.358179 8.63489 -3.755e-08 8.28664 0 7.85714C3.755e-08 7.42764 0.358179 7.07934 0.800001 7.07934L17.2687 7.07939L12.2344 2.18495Z" fill="#999999"/>
    </g>
    <defs>
    <clipPath id="clip0_2261_18350">
    <rect width="20" height="14" fill="white" transform="translate(0 0.857147)"/>
    </clipPath>
    </defs>
    </svg>
