<svg width="20" height="20" viewBox="0 0 20 20" fill="none" xmlns="http://www.w3.org/2000/svg">
    <path d="M10 0C4.5 0 0 4.5 0 10C0 15.5 4.5 20 10 20C15.5 20 20 15.5 20 10C20 4.5 15.5 0 10 0ZM10 18.6667C5.2222 18.6667 1.33334 14.7778 1.33334 10C1.33334 5.2222 5.2222 1.33334 10 1.33334C14.7778 1.33334 18.6667 5.2222 18.6667 10C18.6667 14.7778 14.7778 18.6667 10 18.6667Z" fill="#97453C"/>
    <path d="M14.2223 5.77769C13.9445 5.49989 13.5556 5.49989 13.2778 5.77769L10 9.05544L6.72226 5.77769C6.44446 5.49989 6.05556 5.49989 5.77781 5.77769C5.50001 6.05544 5.50001 6.44434 5.77781 6.72209L9.05556 9.99989L5.77781 13.2777C5.50001 13.5554 5.50001 13.9443 5.77781 14.2221C5.88891 14.3332 6.05556 14.4443 6.22226 14.4443C6.38891 14.4443 6.55556 14.3888 6.66671 14.2221L9.94446 10.9443L13.2223 14.2221C13.3334 14.3332 13.5 14.4443 13.6667 14.4443C13.8334 14.4443 14 14.3888 14.1111 14.2221C14.3889 13.9443 14.3889 13.5554 14.1111 13.2777L10.9445 9.99989L14.2223 6.72209C14.5 6.44434 14.5 6.05544 14.2223 5.77769Z" fill="#97453C"/>
    </svg>
