<svg width="20" height="20" viewBox="0 0 20 20" fill="none" xmlns="http://www.w3.org/2000/svg">
    <g clip-path="url(#clip0_2261_16711)">
        <path fill-rule="evenodd" clip-rule="evenodd" d="M12.2344 4.18495C11.9219 3.88114 11.9219 3.38876 12.2344 3.08494C12.5468 2.78122 13.0533 2.78122 13.3657 3.08494L19.7657 9.30714C20.0781 9.61094 20.0781 10.1033 19.7657 10.4071L13.3657 16.6293C13.0533 16.9331 12.5468 16.9331 12.2344 16.6293C11.9219 16.3255 11.9219 15.8331 12.2344 15.5293L17.2687 10.6349L0.800001 10.6349C0.358179 10.6349 -3.755e-08 10.2866 0 9.85714C3.755e-08 9.42764 0.358179 9.07934 0.800001 9.07934L17.2687 9.07939L12.2344 4.18495Z" fill="white" />
    </g>
    <defs>
        <clipPath id="clip0_2261_16711">
            <rect width="20" height="14" fill="white" transform="translate(0 2.85715)" />
        </clipPath>
    </defs>
</svg>
