<svg width="32" height="32" viewBox="0 0 32 32" fill="none" xmlns="http://www.w3.org/2000/svg">
    <path d="M27.6069 8.88531C28.3242 8.88531 29.0414 8.60843 29.5793 8.05469L31.731 5.8397C31.9103 5.65511 32 5.37824 32 5.10137C32 4.82449 31.9103 4.54762 31.731 4.36304L29.1311 1.68659C28.6828 1.22513 28.0552 1.22513 27.6069 1.68659L25.4552 3.90158C24.6483 4.7322 24.3794 6.02428 24.8277 7.13177L18.8208 13.3153L16.3105 10.6388C16.7588 7.9624 15.8622 5.10137 14.0691 3.16325C12.545 1.5943 10.483 0.671387 8.24159 0.671387C7.2554 0.671387 6.2692 0.855969 5.37265 1.22513C5.01404 1.40972 4.74507 1.68659 4.74507 2.05576C4.65542 2.42492 4.74507 2.79409 5.01404 3.07096L8.60021 6.67032L7.97263 8.88531L5.82093 9.43906L2.23475 5.8397C2.05544 5.56282 1.69683 5.47053 1.33821 5.56282C0.97959 5.65511 0.710627 5.8397 0.531318 6.20886C-0.634188 9.34676 0.172701 12.8538 2.41406 15.1611C4.2968 17.0992 7.07609 18.0221 9.67606 17.4684L10.3036 18.1144L4.65542 23.8365C3.75888 24.6671 3.22095 25.7746 3.13129 26.8821C2.95199 28.0819 3.3106 29.1894 4.02784 30.02C4.65542 30.666 5.55196 31.0352 6.44851 31.0352C7.70367 31.0352 9.04848 30.3892 10.0347 29.374L15.5933 23.6519L21.9587 30.2046C22.8553 31.1275 24.0208 31.589 25.2759 31.589C26.5311 31.589 27.6966 31.1275 28.5931 30.2046C29.4897 29.2817 29.938 28.0819 29.938 26.7898C29.938 25.4977 29.4897 24.2979 28.5931 23.375L20.2553 14.8842L26.2621 8.70073C26.8 8.79302 27.1587 8.9776 27.6069 8.88531ZM14.1588 22.1752L8.60021 27.8973C7.97263 28.5433 7.16574 28.9125 6.53816 28.9125C6.2692 28.9125 5.91058 28.8202 5.64162 28.5433C5.283 28.2665 5.19335 27.805 5.19335 27.2513C5.283 26.6052 5.64162 25.9592 6.17954 25.4054L11.7381 19.6834L14.1588 22.1752ZM9.85537 10.0851L10.7519 6.67032C10.8416 6.30115 10.7519 5.93199 10.483 5.65511L7.88298 2.97867C9.58641 2.88638 11.3795 3.53242 12.545 4.82449C14.0691 6.39344 14.6967 8.70073 14.1588 10.8234C14.0691 11.1926 14.1588 11.5618 14.4277 11.8386L27.2483 24.944C27.6966 25.4054 27.9656 26.1438 27.9656 26.7898C27.9656 27.5281 27.6966 28.1742 27.2483 28.6356C26.2621 29.6508 24.5587 29.6508 23.5725 28.6356L10.7519 15.5303C10.5726 15.3457 10.3036 15.1611 10.0347 15.1611C9.94503 15.1611 9.85537 15.1611 9.76572 15.1611C7.70367 15.7149 5.46231 15.0688 3.93818 13.4999C2.68302 12.2078 2.05544 10.4543 2.1451 8.70073L4.74507 11.3772C5.01404 11.654 5.37265 11.7463 5.73127 11.654L9.04848 10.7311C9.49675 10.7311 9.76572 10.4543 9.85537 10.0851ZM27.069 6.48574C26.9794 6.48574 26.9794 6.48574 27.069 6.48574C26.7104 6.11657 26.7104 5.65511 27.069 5.37824L28.5035 3.99387L29.4897 5.10137L28.1449 6.48574C27.7862 6.76261 27.338 6.76261 27.069 6.48574Z" fill="#0046C0"/>
    </svg>
