<svg width="32" height="31" viewBox="0 0 32 31" fill="none" xmlns="http://www.w3.org/2000/svg">
    <path fill-rule="evenodd" clip-rule="evenodd" d="M9.05208 2.1252C8.63032 2.12465 8.21848 2.253 7.87176 2.49305C7.52496 2.7331 7.25984 3.07339 7.11192 3.46833C7.10495 3.48693 7.09739 3.50531 7.08926 3.52343L4.74834 8.74064C4.53555 9.21488 3.9786 9.42688 3.50436 9.21408C3.03011 9.00128 2.81816 8.44432 3.03095 7.97008L5.3605 2.77821C5.64515 2.03661 6.14683 1.39778 6.80034 0.945374C7.4624 0.487046 8.24872 0.241934 9.05392 0.242862C9.05368 0.242854 9.05416 0.242862 9.05392 0.242862H20.941C20.9409 0.242862 20.9411 0.242862 20.941 0.242862C21.7459 0.242438 22.5322 0.487686 23.1939 0.945854C23.8473 1.39816 24.349 2.03668 24.634 2.77794L24.6227 2.75284L23.7641 3.13814L24.6452 2.80741C24.6415 2.79757 24.6378 2.78775 24.634 2.77794L26.965 7.97272C27.1778 8.44696 26.9658 9.00392 26.4916 9.21672C26.0173 9.42952 25.4604 9.2176 25.2476 8.74336L22.9054 3.52345C22.8974 3.50549 22.8898 3.48729 22.8829 3.46887C22.7346 3.07392 22.4694 2.73364 22.1226 2.49353C21.7757 2.25341 21.3638 2.12491 20.9419 2.1252H9.05208Z" fill="#0046C0" />
    <path fill-rule="evenodd" clip-rule="evenodd" d="M1.94752 16.0362C2.46731 16.0362 2.88868 16.4576 2.88868 16.9773V19.2527C2.88868 19.5356 3.00104 19.8068 3.20105 20.0068C3.40106 20.2068 3.67232 20.3192 3.95517 20.3192C4.23801 20.3192 4.50927 20.2068 4.70928 20.0068C4.90929 19.8068 5.02165 19.5356 5.02165 19.2527V17.245C5.02165 16.7252 5.44303 16.3039 5.96282 16.3039C6.48261 16.3039 6.90399 16.7252 6.90399 17.245V19.2527C6.90399 20.0348 6.59331 20.7848 6.0403 21.3378C5.48729 21.8908 4.73724 22.2015 3.95517 22.2015C3.17309 22.2015 2.42304 21.8908 1.87004 21.3378C1.31703 20.7848 1.00635 20.0348 1.00635 19.2527V16.9773C1.00635 16.4576 1.42772 16.0362 1.94752 16.0362Z" fill="#0046C0" />
    <path fill-rule="evenodd" clip-rule="evenodd" d="M25.0329 7.26984C25.9033 7.26936 26.7586 7.49808 27.5124 7.93304C28.2665 8.36808 28.8927 8.99408 29.328 9.74808C29.5879 10.1982 29.4337 10.7738 28.9835 11.0337C28.5333 11.2936 27.9577 11.1394 27.6978 10.6892C27.4278 10.2216 27.0395 9.83336 26.5717 9.56352C26.1041 9.29368 25.5735 9.15184 25.0336 9.15216H4.95647C4.14117 9.15216 3.35925 9.476 2.78273 10.0526C2.20622 10.629 1.88234 11.411 1.88234 12.2263V15.2378C1.88234 15.5206 1.9947 15.7918 2.1947 15.9919C2.39471 16.1919 2.66598 16.3042 2.94882 16.3042H10.9794C11.4992 16.3042 11.9206 16.7256 11.9206 17.2454C11.9206 17.7652 11.4992 18.1866 10.9794 18.1866H2.94882C2.16674 18.1866 1.4167 17.8759 0.863688 17.3229C0.31068 16.7699 0 16.0198 0 15.2378V12.2263C0 10.9118 0.5222 9.65104 1.45172 8.72152C2.38124 7.792 3.64193 7.26984 4.95647 7.26984H25.0329C25.0331 7.26984 25.0329 7.26984 25.0329 7.26984Z" fill="#0046C0" />
    <path fill-rule="evenodd" clip-rule="evenodd" d="M16.6844 14.9163C18.3669 13.2338 20.649 12.2886 23.0284 12.2886C25.4078 12.2886 27.6898 13.2338 29.3724 14.9163C31.055 16.5989 32.0002 18.8809 32.0002 21.2603C32.0002 23.6398 31.055 25.9218 29.3724 27.6043C27.6898 29.2869 25.4078 30.2322 23.0284 30.2322C20.649 30.2322 18.3669 29.2869 16.6844 27.6043C15.0018 25.9218 14.0566 23.6398 14.0566 21.2603C14.0566 18.8809 15.0018 16.5989 16.6844 14.9163ZM23.0284 14.1709C21.1482 14.1709 19.345 14.9179 18.0154 16.2474C16.6858 17.5769 15.939 19.3801 15.939 21.2603C15.939 23.1406 16.6858 24.9438 18.0154 26.2734C19.345 27.6029 21.1482 28.3498 23.0284 28.3498C24.9086 28.3498 26.7118 27.6029 28.0414 26.2734C29.3709 24.9438 30.1178 23.1406 30.1178 21.2603C30.1178 19.3801 29.3709 17.5769 28.0414 16.2474C26.7118 14.9179 24.9086 14.1709 23.0284 14.1709Z" fill="#0046C0" />
    <path fill-rule="evenodd" clip-rule="evenodd" d="M27.1717 18.1721C27.5876 18.484 27.6719 19.0739 27.3601 19.4898L23.4712 24.6759C23.3037 24.8985 23.0905 25.0826 22.8458 25.2158C22.6011 25.3489 22.3307 25.428 22.0529 25.4476C21.7749 25.4673 21.4961 25.4271 21.2351 25.3297C20.9741 25.2324 20.7371 25.08 20.54 24.8832L18.532 22.8752C18.1645 22.5076 18.1645 21.9117 18.532 21.5441C18.8995 21.1766 19.4954 21.1766 19.863 21.5441L21.8703 23.5515C21.8768 23.5579 21.8845 23.5629 21.8931 23.5661C21.9017 23.5693 21.9109 23.5707 21.92 23.57C21.9292 23.5693 21.9381 23.5668 21.9461 23.5624C21.9541 23.558 21.961 23.552 21.9665 23.5448C21.9665 23.5449 21.9665 23.5448 21.9665 23.5448L25.8541 18.3605C26.1659 17.9446 26.7558 17.8603 27.1717 18.1721Z" fill="#0046C0" />
</svg>
