<svg width="32" height="33" viewBox="0 0 32 33" fill="none" xmlns="http://www.w3.org/2000/svg">
    <g clip-path="url(#clip0_740_57929)">
    <path fill-rule="evenodd" clip-rule="evenodd" d="M13.1784 10.0812C13.2601 9.99952 13.371 9.9536 13.4865 9.9536H18.8484C18.964 9.9536 19.0748 9.99952 19.1565 10.0812C19.2382 10.1629 19.2841 10.2738 19.2841 10.3893V12.1644H13.0508V10.3893C13.0508 10.2738 13.0967 10.1629 13.1784 10.0812ZM11.2411 12.309V10.3893C11.2411 9.79376 11.4777 9.22264 11.8988 8.8016C12.3199 8.38048 12.891 8.14392 13.4865 8.14392H18.8484C19.4439 8.14392 20.0151 8.38048 20.4361 8.8016C20.8572 9.22264 21.0938 9.79376 21.0938 10.3893V12.3078C21.5267 12.4487 21.9246 12.6905 22.2525 13.0184C22.7993 13.5651 23.1065 14.3067 23.1065 15.08C23.1065 15.8533 22.7993 16.5948 22.2525 17.1416C21.9256 17.4686 21.529 17.7098 21.0977 17.851V19.1005C21.0977 19.6002 20.6926 20.0053 20.1928 20.0053C19.6931 20.0053 19.288 19.6002 19.288 19.1005V17.9955H13.0508V19.1005C13.0508 19.6002 12.6457 20.0053 12.146 20.0053C11.6463 20.0053 11.2411 19.6002 11.2411 19.1005V17.851C10.8099 17.7098 10.4133 17.4686 10.0863 17.1416C9.53962 16.5948 9.23242 15.8533 9.23242 15.08C9.23242 14.3067 9.53962 13.5651 10.0863 13.0184C10.4133 12.6914 10.8099 12.4502 11.2411 12.309ZM12.1155 13.9746C11.8339 13.9828 11.5657 14.0982 11.3659 14.298C11.1586 14.5054 11.0421 14.7867 11.0421 15.08C11.0421 15.3733 11.1586 15.6546 11.3659 15.862C11.5657 16.0617 11.8339 16.1771 12.1155 16.1854C12.1256 16.1851 12.1358 16.1849 12.146 16.1849C12.1603 16.1849 12.1744 16.1853 12.1885 16.1859H20.1501C20.1643 16.1852 20.1785 16.1849 20.1928 16.1849C20.2031 16.1849 20.2133 16.185 20.2235 16.1854C20.505 16.1771 20.7732 16.0617 20.9729 15.862C21.1803 15.6546 21.2968 15.3733 21.2968 15.08C21.2968 14.7867 21.1803 14.5054 20.9729 14.298C20.7727 14.0978 20.5035 13.9822 20.2212 13.9745C20.2105 13.9749 20.1998 13.975 20.1889 13.975H12.146C12.1358 13.975 12.1256 13.9749 12.1155 13.9746Z" fill="#0046C0"/>
    <path fill-rule="evenodd" clip-rule="evenodd" d="M16.0002 1.91903C13.0791 1.91903 10.2776 3.10087 8.21212 5.20455C6.14664 7.30824 4.98624 10.1615 4.98624 13.1365C4.98624 18.1741 7.15108 22.1241 9.62852 25.0005C12.111 27.8826 14.8719 29.6426 15.9496 30.267L15.951 30.2678C15.9658 30.2764 15.9825 30.2809 15.9996 30.2809C16.0166 30.2809 16.0333 30.2764 16.0481 30.2678L16.0482 30.2677C17.1252 29.6413 19.8866 27.8811 22.3698 24.9993C24.8481 22.1232 27.0141 18.174 27.0141 13.1365C27.0141 10.1615 25.8537 7.30824 23.7883 5.20455C21.7228 3.10087 18.9213 1.91903 16.0002 1.91903ZM6.94923 3.91829C9.34972 1.47346 12.6054 0.0999756 16.0002 0.0999756C19.395 0.0999756 22.6507 1.47346 25.0512 3.91829C27.4516 6.36312 28.8002 9.67902 28.8002 13.1365C28.8002 18.7439 26.3807 23.1024 23.7122 26.1992C21.0487 29.2902 18.102 31.1681 16.9339 31.8474L16.491 31.0576L16.934 31.8473C16.934 31.8473 16.9339 31.8473 16.9339 31.8474C16.6492 32.0129 16.3272 32.1 15.9996 32.1C15.6724 32.1 15.3508 32.0132 15.0665 31.8481L15.508 31.0576L15.0651 31.8473C15.0656 31.8476 15.066 31.8479 15.0665 31.8481C13.8951 31.1695 10.9486 29.2914 8.28587 26.2001C5.61822 23.1029 3.2002 18.7437 3.2002 13.1365C3.2002 9.67902 4.54876 6.36312 6.94923 3.91829Z" fill="#0046C0"/>
    </g>
    <defs>
    <clipPath id="clip0_740_57929">
    <rect width="32" height="32" fill="white" transform="translate(0 0.0999756)"/>
    </clipPath>
    </defs>
    </svg>
